HIERARCHY
ROOT Hips
{
	OFFSET -0.001795 -0.223333 0.028219
	CHANNELS 6 Xposition Yposition Zposition Zrotation Yrotation Xrotation 
	JOINT LeftUpLeg
	{
		OFFSET 0.069520 -0.091406 -0.006815
		CHANNELS 3 Zrotation Yrotation Xrotation
		JOINT LeftLeg
		{
			OFFSET 0.034277 -0.375199 -0.004496
			CHANNELS 3 Zrotation Yrotation Xrotation
			JOINT LeftFoot
			{
				OFFSET -0.013596 -0.397961 -0.043693
				CHANNELS 3 Zrotation Yrotation Xrotation
				JOINT LeftToe
				{
					OFFSET 0.026358 -0.055791 0.119288
					CHANNELS 3 Zrotation Yrotation Xrotation
					End Site
					{
						OFFSET 0.000000 0.000000 0.000000
					}
				}
			}
		}
	}
	JOINT RightUpLeg
	{
		OFFSET -0.067670 -0.090522 -0.004320
		CHANNELS 3 Zrotation Yrotation Xrotation
		JOINT RightLeg
		{
			OFFSET -0.038290 -0.382569 -0.008850
			CHANNELS 3 Zrotation Yrotation Xrotation
			JOINT RightFoot
			{
				OFFSET 0.015774 -0.398415 -0.042312
				CHANNELS 3 Zrotation Yrotation Xrotation
				JOINT RightToe
				{
					OFFSET -0.025372 -0.048144 0.123348
					CHANNELS 3 Zrotation Yrotation Xrotation
					End Site
					{
						OFFSET 0.000000 0.000000 0.000000
					}
				}
			}
		}
	}
	JOINT Spine
	{
		OFFSET -0.002533 0.108963 -0.026696
		CHANNELS 3 Zrotation Yrotation Xrotation
		JOINT Spine1
		{
			OFFSET 0.005487 0.135180 0.001092
			CHANNELS 3 Zrotation Yrotation Xrotation
			JOINT Spine2
			{
				OFFSET 0.001457 0.052922 0.025425
				CHANNELS 3 Zrotation Yrotation Xrotation
				JOINT Neck
				{
					OFFSET -0.002778 0.213870 -0.042857
					CHANNELS 3 Zrotation Yrotation Xrotation
					JOINT Head
					{
						OFFSET 0.005152 0.064970 0.051349
						CHANNELS 3 Zrotation Yrotation Xrotation
						End Site
						{
							OFFSET 0.000000 0.000000 0.000000
						}
					}
				}
				JOINT LeftShoulder
				{
					OFFSET 0.078845 0.121749 -0.034090
					CHANNELS 3 Zrotation Yrotation Xrotation
					JOINT LeftArm
					{
						OFFSET 0.090977 0.030469 -0.008868
						CHANNELS 3 Zrotation Yrotation Xrotation
						JOINT LeftForeArm
						{
							OFFSET 0.259612 -0.012772 -0.027456
							CHANNELS 3 Zrotation Yrotation Xrotation
							JOINT LeftHand
							{
								OFFSET 0.249234 0.008986 -0.001171
								CHANNELS 3 Zrotation Yrotation Xrotation
								End Site
								{
									OFFSET 0.000000 0.000000 0.000000
								}
							}
						}
					}
				}
				JOINT RightShoulder
				{
					OFFSET -0.081759 0.118833 -0.038615
					CHANNELS 3 Zrotation Yrotation Xrotation
					JOINT RightArm
					{
						OFFSET -0.096012 0.032551 -0.009143
						CHANNELS 3 Zrotation Yrotation Xrotation
						JOINT RightForeArm
						{
							OFFSET -0.253742 -0.013329 -0.021401
							CHANNELS 3 Zrotation Yrotation Xrotation
							JOINT RightHand
							{
								OFFSET -0.255298 0.007772 -0.005559
								CHANNELS 3 Zrotation Yrotation Xrotation
								End Site
								{
									OFFSET 0.000000 0.000000 0.000000
								}
							}
						}
					}
				}
			}
		}
	}
}
MOTION
Frames: 10
Frame Time: 0.050000
0.002210 0.823780 -0.001599 0.965376 1.840802 -10.184831 18.042721 1.129180 -16.477149 -16.300292 7.256938 51.819825 8.981637 17.189187 -11.531569 0.000000 0.000000 0.000000 -13.668349 -0.518484 -19.804137 7.936350 -3.199045 58.934149 -9.179910 -23.082864 -14.087986 0.000000 0.000000 0.000000 7.020944 -1.326384 14.439154 -5.006653 1.933408 -24.535882 -4.590576 4.899888 21.301490 9.756573 -1.893581 -32.771574 0.000000 0.000000 0.000000 0.048881 -23.187673 7.425283 9.990569 -42.085168 -6.253306 26.521916 -27.561589 -6.333088 0.000000 0.000000 0.000000 4.320263 11.483328 4.570808 -8.612837 52.482800 -6.715570 -20.871744 31.388121 -4.542389 0.000000 0.000000 0.000000
0.001974 0.822681 -0.001673 0.770449 2.039493 -10.240434 18.031556 1.109901 -16.478641 -15.990316 7.024561 52.135200 8.940925 17.057633 -11.617982 0.000000 0.000000 0.000000 -13.562657 -0.514461 -19.702850 7.967157 -3.307537 58.900532 -9.053482 -22.703824 -14.335054 0.000000 0.000000 0.000000 7.057407 -1.318252 14.286662 -4.964982 1.936261 -24.263688 -4.617094 5.087978 21.438471 9.916083 -1.990909 -32.365178 0.000000 0.000000 0.000000 0.261108 -23.610004 7.520911 10.091400 -41.737516 -6.239492 26.437573 -27.795562 -6.393061 0.000000 0.000000 0.000000 4.316327 11.517335 4.606229 -8.375053 52.029878 -6.501572 -20.717462 30.483355 -4.339580 0.000000 0.000000 0.000000
0.001850 0.822930 -0.001431 0.655211 2.015615 -10.211404 18.090958 1.102017 -16.207613 -15.913140 6.949559 51.887473 8.962663 17.073699 -11.932584 0.000000 0.000000 0.000000 -13.397742 -0.479228 -19.566293 7.705820 -3.103074 58.486859 -8.909437 -22.212031 -14.215385 0.000000 0.000000 0.000000 6.974127 -1.297604 14.160178 -5.007819 1.950153 -24.109889 -4.454083 5.167069 21.640432 9.866133 -2.023335 -31.945078 0.000000 0.000000 0.000000 0.408840 -23.807778 7.564616 10.016369 -41.348032 -6.138788 26.902504 -27.603751 -6.486780 0.000000 0.000000 0.000000 4.150226 11.642194 4.634600 -8.265237 51.507295 -6.360786 -20.060201 29.454785 -4.011241 0.000000 0.000000 0.000000
0.001759 0.824758 -0.000787 0.605210 1.749616 -10.100966 18.302486 1.095716 -15.381551 -15.913695 6.892706 50.645021 8.736818 16.513137 -11.845622 0.000000 0.000000 0.000000 -13.037426 -0.385485 -19.283428 7.258335 -2.666428 57.628306 -8.709531 -21.522921 -14.238083 0.000000 0.000000 0.000000 6.743262 -1.222154 13.678621 -4.837742 1.898262 -24.057397 -4.408440 5.299778 21.936259 10.227811 -2.372390 -30.997018 0.000000 0.000000 0.000000 0.022331 -24.160153 7.725279 10.210300 -40.797876 -6.063322 26.572646 -27.724220 -6.423413 0.000000 0.000000 0.000000 3.992677 11.973241 4.738553 -8.043771 51.353453 -6.258194 -18.668620 28.310637 -3.509949 0.000000 0.000000 0.000000
0.001711 0.827054 0.000195 0.457232 1.635796 -9.778852 18.362295 1.052948 -14.671974 -16.012976 6.830250 49.223259 8.894973 16.908997 -11.987010 0.000000 0.000000 0.000000 -12.731711 -0.310596 -19.012878 6.886413 -2.358365 56.697906 -8.639299 -21.286053 -13.986696 0.000000 0.000000 0.000000 6.623716 -1.148077 13.012492 -4.807087 1.894074 -23.691816 -4.408706 5.280046 21.799205 10.714806 -2.659994 -30.841037 0.000000 0.000000 0.000000 0.112209 -24.441003 7.815668 10.210063 -40.451955 -5.978880 26.097871 -27.181683 -6.151535 0.000000 0.000000 0.000000 4.161786 12.248684 4.871519 -7.740637 51.017427 -6.107331 -17.619128 27.362484 -3.138585 0.000000 0.000000 0.000000
0.001672 0.829686 0.001229 0.249591 1.247621 -9.390284 18.425203 1.024412 -13.912587 -15.885941 6.698696 47.686717 9.017323 17.239810 -12.189721 0.000000 0.000000 0.000000 -12.436034 -0.221607 -18.874145 6.693054 -2.087678 55.547841 -8.600881 -21.124979 -13.804243 0.000000 0.000000 0.000000 6.623655 -1.097649 12.484859 -4.881371 1.904865 -23.684641 -4.391712 5.392883 21.793378 11.201090 -3.134455 -29.684955 0.000000 0.000000 0.000000 0.438652 -25.269604 8.050579 10.436334 -39.781120 -5.880312 25.217483 -26.345338 -5.715535 0.000000 0.000000 0.000000 4.079418 12.838654 5.082912 -7.866176 50.560684 -6.099932 -16.206344 25.994918 -2.666904 0.000000 0.000000 0.000000
0.001638 0.832325 0.002111 0.066103 0.867432 -8.900688 18.421255 1.003195 -13.484254 -15.703468 6.563439 46.390904 9.070280 17.425659 -12.207160 0.000000 0.000000 0.000000 -12.232630 -0.148926 -18.925014 6.819455 -2.048001 54.645452 -8.592713 -21.053008 -13.087600 0.000000 0.000000 0.000000 6.749270 -1.048505 11.825794 -4.954725 1.912198 -23.649668 -4.431422 5.605317 21.869586 11.490748 -3.354781 -29.297290 0.000000 0.000000 0.000000 1.172307 -25.644247 8.083416 10.501362 -39.707374 -5.898408 24.016418 -25.426556 -5.201651 0.000000 0.000000 0.000000 3.921353 12.867318 5.076355 -7.906048 50.691535 -6.138167 -15.346041 24.769452 -2.344284 0.000000 0.000000 0.000000
0.001594 0.834412 0.002867 -0.099168 0.434105 -8.359841 18.388776 0.997291 -13.276829 -15.535237 6.476829 45.316217 9.245389 17.966327 -11.925459 0.000000 0.000000 0.000000 -12.120643 -0.088842 -18.976203 6.989649 -2.017773 53.644905 -8.555010 -20.882489 -12.676582 0.000000 0.000000 0.000000 6.849598 -1.015042 11.346805 -5.047782 1.928113 -23.449334 -4.592332 5.573221 21.351488 11.478899 -3.611348 -27.941434 0.000000 0.000000 0.000000 1.455716 -26.123151 8.215103 10.556470 -39.305637 -5.792572 22.632773 -24.705289 -4.685816 0.000000 0.000000 0.000000 3.814028 13.283399 5.207071 -8.066145 50.430067 -6.175335 -14.281059 23.828522 -2.039832 0.000000 0.000000 0.000000
0.001458 0.836314 0.003507 -0.198712 0.210387 -8.075159 18.385590 0.989218 -13.082072 -15.312583 6.348320 44.689106 9.232630 17.979077 -11.770657 0.000000 0.000000 0.000000 -11.916861 -0.034094 -19.063285 7.187621 -2.074666 53.087952 -8.532020 -20.780085 -12.043509 0.000000 0.000000 0.000000 6.806182 -1.012169 11.306972 -4.929925 1.883230 -23.663135 -4.655429 5.418883 21.412879 11.317551 -3.606273 -27.703058 0.000000 0.000000 0.000000 1.536835 -26.275997 8.264406 10.792029 -39.281924 -5.823735 21.827260 -23.776061 -4.299903 0.000000 0.000000 0.000000 3.320640 13.651136 5.254973 -8.536228 50.337044 -6.357810 -14.001979 23.068001 -1.922285 0.000000 0.000000 0.000000
0.001312 0.837739 0.004132 -0.342846 0.108224 -7.928159 18.398657 0.991710 -13.070286 -15.090537 6.242600 44.578252 9.336726 18.290781 -11.322215 0.000000 0.000000 0.000000 -11.655533 0.018582 -18.790907 7.394742 -2.168448 52.449926 -8.547418 -20.830375 -12.204962 0.000000 0.000000 0.000000 6.766353 -1.018791 11.382589 -4.962543 1.896739 -23.387466 -4.901402 5.235494 20.953306 11.451706 -3.890806 -26.680635 0.000000 0.000000 0.000000 1.275140 -26.534288 8.394984 11.148979 -39.436600 -5.919457 20.766563 -23.041814 -3.904137 0.000000 0.000000 0.000000 3.575666 13.865763 5.363975 -9.050690 50.127007 -6.537416 -13.634170 22.717406 -1.828493 0.000000 0.000000 0.000000
